G04 EAGLE Gerber RS-274X export*
G75*
%MOMM*%
%FSLAX34Y34*%
%LPD*%
%INBottom Copper*%
%IPPOS*%
%AMOC8*
5,1,8,0,0,1.08239X$1,22.5*%
G01*
%ADD10C,1.905000*%
%ADD11C,2.667000*%
%ADD12C,1.320800*%
%ADD13P,1.429621X8X22.500000*%
%ADD14P,1.429621X8X292.500000*%
%ADD15C,0.152400*%


D10*
X469900Y914400D03*
D11*
X444401Y888901D03*
X495399Y888901D03*
X495399Y939899D03*
X444401Y939899D03*
D10*
X88900Y914400D03*
D11*
X114399Y939899D03*
X63401Y939899D03*
X63401Y888901D03*
X114399Y888901D03*
D12*
X158496Y939800D02*
X171704Y939800D01*
X260096Y939800D02*
X273304Y939800D01*
X298196Y939800D02*
X311404Y939800D01*
X399796Y939800D02*
X413004Y939800D01*
X298704Y850900D02*
X285496Y850900D01*
X197104Y850900D02*
X183896Y850900D01*
X399796Y838200D02*
X413004Y838200D01*
X501396Y838200D02*
X514604Y838200D01*
D13*
X165100Y889000D03*
X190500Y889000D03*
X304800Y889000D03*
X330200Y889000D03*
X317500Y850900D03*
X342900Y850900D03*
D14*
X381000Y889000D03*
X381000Y863600D03*
D15*
X507492Y838200D02*
X508000Y838200D01*
X114399Y888901D02*
X114300Y890016D01*
X381000Y863600D02*
X381508Y864108D01*
M02*
