G04 EAGLE Gerber RS-274X export*
G75*
%MOMM*%
%FSLAX34Y34*%
%LPD*%
%INTop Copper*%
%IPPOS*%
%AMOC8*
5,1,8,0,0,1.08239X$1,22.5*%
G01*
%ADD10C,1.905000*%
%ADD11C,2.667000*%
%ADD12C,1.320800*%
%ADD13P,1.429621X8X22.500000*%
%ADD14P,1.429621X8X292.500000*%
%ADD15C,0.152400*%

G36*
X534998Y810264D02*
X534998Y810264D01*
X535017Y810262D01*
X535119Y810284D01*
X535221Y810300D01*
X535238Y810310D01*
X535258Y810314D01*
X535347Y810367D01*
X535438Y810416D01*
X535452Y810430D01*
X535469Y810440D01*
X535536Y810519D01*
X535608Y810594D01*
X535616Y810612D01*
X535629Y810627D01*
X535668Y810723D01*
X535711Y810817D01*
X535713Y810837D01*
X535721Y810855D01*
X535739Y811022D01*
X535739Y963678D01*
X535736Y963698D01*
X535738Y963717D01*
X535716Y963819D01*
X535700Y963921D01*
X535690Y963938D01*
X535686Y963958D01*
X535633Y964047D01*
X535584Y964138D01*
X535570Y964152D01*
X535560Y964169D01*
X535481Y964236D01*
X535406Y964308D01*
X535388Y964316D01*
X535373Y964329D01*
X535277Y964368D01*
X535183Y964411D01*
X535163Y964413D01*
X535145Y964421D01*
X534978Y964439D01*
X49022Y964439D01*
X49002Y964436D01*
X48983Y964438D01*
X48881Y964416D01*
X48779Y964400D01*
X48762Y964390D01*
X48742Y964386D01*
X48653Y964333D01*
X48562Y964284D01*
X48548Y964270D01*
X48531Y964260D01*
X48464Y964181D01*
X48392Y964106D01*
X48384Y964088D01*
X48371Y964073D01*
X48332Y963977D01*
X48289Y963883D01*
X48287Y963863D01*
X48279Y963845D01*
X48261Y963678D01*
X48261Y948268D01*
X48268Y948220D01*
X48267Y948172D01*
X48288Y948100D01*
X48300Y948025D01*
X48323Y947983D01*
X48337Y947937D01*
X48380Y947874D01*
X48416Y947808D01*
X48450Y947775D01*
X48478Y947735D01*
X48539Y947690D01*
X48594Y947638D01*
X48637Y947618D01*
X48676Y947590D01*
X48748Y947567D01*
X48817Y947535D01*
X48865Y947529D01*
X48910Y947515D01*
X48986Y947516D01*
X49061Y947508D01*
X49108Y947518D01*
X49156Y947518D01*
X49228Y947544D01*
X49302Y947560D01*
X49343Y947584D01*
X49388Y947600D01*
X49448Y947647D01*
X49513Y947686D01*
X49544Y947722D01*
X49582Y947752D01*
X49658Y947856D01*
X49673Y947873D01*
X49675Y947879D01*
X49681Y947887D01*
X50173Y948738D01*
X51439Y950389D01*
X52911Y951861D01*
X54562Y953128D01*
X56364Y954168D01*
X58287Y954964D01*
X60297Y955503D01*
X61878Y955711D01*
X61878Y940661D01*
X61881Y940641D01*
X61879Y940622D01*
X61901Y940520D01*
X61918Y940418D01*
X61927Y940401D01*
X61931Y940381D01*
X61984Y940292D01*
X62033Y940201D01*
X62047Y940187D01*
X62057Y940170D01*
X62136Y940103D01*
X62211Y940032D01*
X62229Y940023D01*
X62244Y940010D01*
X62340Y939972D01*
X62434Y939928D01*
X62454Y939926D01*
X62472Y939918D01*
X62639Y939900D01*
X63402Y939900D01*
X63402Y939898D01*
X62639Y939898D01*
X62619Y939895D01*
X62600Y939897D01*
X62498Y939875D01*
X62396Y939858D01*
X62379Y939849D01*
X62359Y939845D01*
X62270Y939792D01*
X62179Y939743D01*
X62165Y939729D01*
X62148Y939719D01*
X62081Y939640D01*
X62010Y939565D01*
X62001Y939547D01*
X61988Y939532D01*
X61949Y939436D01*
X61906Y939342D01*
X61904Y939322D01*
X61896Y939304D01*
X61878Y939137D01*
X61878Y924087D01*
X60297Y924295D01*
X58287Y924834D01*
X56364Y925630D01*
X54562Y926670D01*
X52911Y927937D01*
X51439Y929409D01*
X50173Y931060D01*
X49681Y931911D01*
X49651Y931948D01*
X49628Y931990D01*
X49574Y932042D01*
X49525Y932101D01*
X49485Y932127D01*
X49450Y932160D01*
X49381Y932192D01*
X49317Y932232D01*
X49271Y932243D01*
X49227Y932263D01*
X49152Y932272D01*
X49078Y932289D01*
X49030Y932285D01*
X48983Y932290D01*
X48908Y932274D01*
X48833Y932268D01*
X48789Y932248D01*
X48742Y932238D01*
X48677Y932199D01*
X48608Y932169D01*
X48572Y932137D01*
X48531Y932112D01*
X48482Y932054D01*
X48426Y932003D01*
X48402Y931962D01*
X48371Y931925D01*
X48343Y931855D01*
X48306Y931789D01*
X48297Y931742D01*
X48279Y931697D01*
X48265Y931569D01*
X48261Y931547D01*
X48262Y931540D01*
X48261Y931530D01*
X48261Y897270D01*
X48268Y897222D01*
X48267Y897174D01*
X48288Y897102D01*
X48300Y897027D01*
X48323Y896985D01*
X48337Y896939D01*
X48380Y896876D01*
X48416Y896810D01*
X48450Y896777D01*
X48478Y896737D01*
X48539Y896692D01*
X48594Y896640D01*
X48637Y896620D01*
X48676Y896592D01*
X48748Y896569D01*
X48817Y896537D01*
X48865Y896531D01*
X48910Y896517D01*
X48986Y896518D01*
X49061Y896510D01*
X49108Y896520D01*
X49156Y896520D01*
X49228Y896546D01*
X49302Y896562D01*
X49343Y896586D01*
X49388Y896602D01*
X49448Y896649D01*
X49513Y896688D01*
X49544Y896724D01*
X49582Y896754D01*
X49658Y896858D01*
X49673Y896875D01*
X49675Y896881D01*
X49681Y896889D01*
X50173Y897740D01*
X51439Y899391D01*
X52911Y900863D01*
X54562Y902130D01*
X56364Y903170D01*
X58287Y903966D01*
X60297Y904505D01*
X61878Y904713D01*
X61878Y889663D01*
X61881Y889643D01*
X61879Y889624D01*
X61901Y889522D01*
X61918Y889420D01*
X61927Y889403D01*
X61931Y889383D01*
X61984Y889294D01*
X62033Y889203D01*
X62047Y889189D01*
X62057Y889172D01*
X62136Y889105D01*
X62211Y889034D01*
X62229Y889025D01*
X62244Y889012D01*
X62340Y888974D01*
X62434Y888930D01*
X62454Y888928D01*
X62472Y888920D01*
X62639Y888902D01*
X63402Y888902D01*
X63402Y888900D01*
X62639Y888900D01*
X62619Y888897D01*
X62600Y888899D01*
X62498Y888877D01*
X62396Y888860D01*
X62379Y888851D01*
X62359Y888847D01*
X62270Y888794D01*
X62179Y888745D01*
X62165Y888731D01*
X62148Y888721D01*
X62081Y888642D01*
X62010Y888567D01*
X62001Y888549D01*
X61988Y888534D01*
X61949Y888438D01*
X61906Y888344D01*
X61904Y888324D01*
X61896Y888306D01*
X61878Y888139D01*
X61878Y873089D01*
X60297Y873297D01*
X58287Y873836D01*
X56364Y874632D01*
X54562Y875672D01*
X52911Y876939D01*
X51439Y878411D01*
X50173Y880062D01*
X49681Y880913D01*
X49651Y880950D01*
X49628Y880992D01*
X49574Y881044D01*
X49525Y881103D01*
X49485Y881129D01*
X49450Y881162D01*
X49381Y881194D01*
X49317Y881234D01*
X49271Y881245D01*
X49227Y881265D01*
X49152Y881274D01*
X49078Y881291D01*
X49030Y881287D01*
X48983Y881292D01*
X48908Y881276D01*
X48833Y881270D01*
X48789Y881250D01*
X48742Y881240D01*
X48677Y881201D01*
X48608Y881171D01*
X48572Y881139D01*
X48531Y881114D01*
X48482Y881056D01*
X48426Y881005D01*
X48402Y880964D01*
X48371Y880927D01*
X48343Y880857D01*
X48306Y880791D01*
X48297Y880744D01*
X48279Y880699D01*
X48265Y880571D01*
X48261Y880549D01*
X48262Y880542D01*
X48261Y880532D01*
X48261Y811022D01*
X48264Y811002D01*
X48262Y810983D01*
X48284Y810881D01*
X48300Y810779D01*
X48310Y810762D01*
X48314Y810742D01*
X48367Y810653D01*
X48416Y810562D01*
X48430Y810548D01*
X48440Y810531D01*
X48519Y810464D01*
X48594Y810392D01*
X48612Y810384D01*
X48627Y810371D01*
X48723Y810332D01*
X48817Y810289D01*
X48837Y810287D01*
X48855Y810279D01*
X49022Y810261D01*
X534978Y810261D01*
X534998Y810264D01*
G37*
%LPC*%
G36*
X499779Y830071D02*
X499779Y830071D01*
X496791Y831309D01*
X494505Y833595D01*
X493739Y835443D01*
X493677Y835543D01*
X493618Y835643D01*
X493613Y835647D01*
X493610Y835652D01*
X493519Y835727D01*
X493431Y835803D01*
X493425Y835805D01*
X493420Y835809D01*
X493312Y835851D01*
X493203Y835895D01*
X493195Y835896D01*
X493191Y835897D01*
X493172Y835898D01*
X493036Y835913D01*
X443553Y835913D01*
X416813Y862653D01*
X416813Y925837D01*
X416799Y925928D01*
X416791Y926018D01*
X416779Y926048D01*
X416774Y926080D01*
X416731Y926161D01*
X416695Y926245D01*
X416669Y926277D01*
X416658Y926298D01*
X416635Y926320D01*
X416590Y926376D01*
X411518Y931448D01*
X411444Y931501D01*
X411374Y931561D01*
X411344Y931573D01*
X411318Y931592D01*
X411231Y931619D01*
X411146Y931653D01*
X411105Y931657D01*
X411083Y931664D01*
X411051Y931663D01*
X410979Y931671D01*
X401821Y931671D01*
X401730Y931657D01*
X401640Y931649D01*
X401610Y931637D01*
X401578Y931632D01*
X401497Y931589D01*
X401413Y931553D01*
X401381Y931527D01*
X401360Y931516D01*
X401338Y931493D01*
X401282Y931448D01*
X356547Y886713D01*
X339090Y886713D01*
X339070Y886710D01*
X339051Y886712D01*
X338949Y886690D01*
X338847Y886674D01*
X338830Y886664D01*
X338810Y886660D01*
X338721Y886607D01*
X338630Y886558D01*
X338616Y886544D01*
X338599Y886534D01*
X338532Y886455D01*
X338460Y886380D01*
X338452Y886362D01*
X338439Y886347D01*
X338400Y886251D01*
X338357Y886157D01*
X338355Y886137D01*
X338347Y886119D01*
X338329Y885952D01*
X338329Y885633D01*
X333567Y880871D01*
X326833Y880871D01*
X322071Y885633D01*
X322071Y892367D01*
X326833Y897129D01*
X333567Y897129D01*
X338329Y892367D01*
X338329Y892048D01*
X338332Y892028D01*
X338330Y892009D01*
X338352Y891907D01*
X338368Y891805D01*
X338378Y891788D01*
X338382Y891768D01*
X338435Y891679D01*
X338484Y891588D01*
X338498Y891574D01*
X338508Y891557D01*
X338587Y891490D01*
X338662Y891418D01*
X338680Y891410D01*
X338695Y891397D01*
X338791Y891358D01*
X338885Y891315D01*
X338905Y891313D01*
X338923Y891305D01*
X339090Y891287D01*
X354337Y891287D01*
X354428Y891301D01*
X354518Y891309D01*
X354548Y891321D01*
X354580Y891326D01*
X354661Y891369D01*
X354745Y891405D01*
X354777Y891431D01*
X354798Y891442D01*
X354820Y891465D01*
X354876Y891510D01*
X395195Y931829D01*
X395207Y931845D01*
X395222Y931857D01*
X395278Y931945D01*
X395338Y932029D01*
X395344Y932047D01*
X395355Y932064D01*
X395380Y932165D01*
X395411Y932264D01*
X395410Y932284D01*
X395415Y932303D01*
X395407Y932406D01*
X395404Y932509D01*
X395398Y932528D01*
X395396Y932548D01*
X395356Y932643D01*
X395320Y932741D01*
X395307Y932756D01*
X395300Y932774D01*
X395195Y932905D01*
X392905Y935195D01*
X391667Y938183D01*
X391667Y941417D01*
X392905Y944405D01*
X395191Y946691D01*
X398179Y947929D01*
X414621Y947929D01*
X417609Y946691D01*
X419895Y944405D01*
X421133Y941417D01*
X421133Y938183D01*
X419895Y935195D01*
X417605Y932905D01*
X417593Y932889D01*
X417578Y932877D01*
X417522Y932790D01*
X417462Y932706D01*
X417456Y932687D01*
X417445Y932670D01*
X417420Y932569D01*
X417389Y932471D01*
X417390Y932451D01*
X417385Y932431D01*
X417393Y932328D01*
X417396Y932225D01*
X417402Y932206D01*
X417404Y932186D01*
X417444Y932091D01*
X417480Y931994D01*
X417493Y931978D01*
X417500Y931960D01*
X417605Y931829D01*
X419824Y929610D01*
X432524Y916910D01*
X432598Y916857D01*
X432668Y916797D01*
X432698Y916785D01*
X432724Y916766D01*
X432811Y916739D01*
X432896Y916705D01*
X432937Y916701D01*
X432959Y916694D01*
X432991Y916695D01*
X433063Y916687D01*
X458378Y916687D01*
X458493Y916706D01*
X458609Y916723D01*
X458615Y916725D01*
X458621Y916726D01*
X458724Y916781D01*
X458829Y916834D01*
X458833Y916839D01*
X458839Y916842D01*
X458918Y916926D01*
X459001Y917010D01*
X459004Y917016D01*
X459008Y917020D01*
X459016Y917037D01*
X459082Y917157D01*
X460533Y920659D01*
X463641Y923767D01*
X467702Y925450D01*
X472098Y925450D01*
X476159Y923767D01*
X479267Y920659D01*
X480950Y916598D01*
X480950Y912202D01*
X479267Y908141D01*
X476159Y905033D01*
X472098Y903350D01*
X467702Y903350D01*
X463641Y905033D01*
X460533Y908141D01*
X459082Y911643D01*
X459020Y911743D01*
X458960Y911843D01*
X458955Y911847D01*
X458952Y911852D01*
X458862Y911927D01*
X458773Y912003D01*
X458767Y912005D01*
X458763Y912009D01*
X458655Y912051D01*
X458545Y912095D01*
X458538Y912096D01*
X458533Y912097D01*
X458515Y912098D01*
X458378Y912113D01*
X430853Y912113D01*
X422686Y920280D01*
X422628Y920322D01*
X422576Y920371D01*
X422529Y920393D01*
X422487Y920423D01*
X422418Y920444D01*
X422353Y920475D01*
X422301Y920480D01*
X422251Y920496D01*
X422180Y920494D01*
X422109Y920502D01*
X422058Y920491D01*
X422006Y920489D01*
X421938Y920465D01*
X421868Y920450D01*
X421823Y920423D01*
X421775Y920405D01*
X421719Y920360D01*
X421657Y920323D01*
X421623Y920284D01*
X421583Y920251D01*
X421544Y920191D01*
X421497Y920136D01*
X421478Y920088D01*
X421450Y920044D01*
X421432Y919975D01*
X421405Y919908D01*
X421397Y919837D01*
X421389Y919806D01*
X421391Y919782D01*
X421387Y919742D01*
X421387Y864863D01*
X421401Y864772D01*
X421409Y864682D01*
X421421Y864652D01*
X421426Y864620D01*
X421469Y864539D01*
X421505Y864455D01*
X421531Y864423D01*
X421542Y864402D01*
X421565Y864380D01*
X421610Y864324D01*
X445224Y840710D01*
X445298Y840657D01*
X445368Y840597D01*
X445398Y840585D01*
X445424Y840566D01*
X445511Y840539D01*
X445596Y840505D01*
X445637Y840501D01*
X445659Y840494D01*
X445691Y840495D01*
X445763Y840487D01*
X493036Y840487D01*
X493151Y840506D01*
X493267Y840523D01*
X493273Y840525D01*
X493279Y840526D01*
X493381Y840581D01*
X493486Y840634D01*
X493491Y840639D01*
X493496Y840642D01*
X493576Y840726D01*
X493659Y840810D01*
X493662Y840816D01*
X493666Y840820D01*
X493673Y840837D01*
X493739Y840957D01*
X494505Y842805D01*
X496791Y845091D01*
X499779Y846329D01*
X516221Y846329D01*
X519209Y845091D01*
X521495Y842805D01*
X522733Y839817D01*
X522733Y836583D01*
X521495Y833595D01*
X519209Y831309D01*
X516221Y830071D01*
X499779Y830071D01*
G37*
%LPD*%
%LPC*%
G36*
X182279Y842771D02*
X182279Y842771D01*
X179291Y844009D01*
X177005Y846295D01*
X175767Y849283D01*
X175767Y852517D01*
X177005Y855505D01*
X179291Y857791D01*
X182279Y859029D01*
X187452Y859029D01*
X187472Y859032D01*
X187491Y859030D01*
X187593Y859052D01*
X187695Y859068D01*
X187712Y859078D01*
X187732Y859082D01*
X187821Y859135D01*
X187912Y859184D01*
X187926Y859198D01*
X187943Y859208D01*
X188010Y859287D01*
X188082Y859362D01*
X188090Y859380D01*
X188103Y859395D01*
X188142Y859491D01*
X188185Y859585D01*
X188187Y859605D01*
X188195Y859623D01*
X188213Y859790D01*
X188213Y880110D01*
X188210Y880130D01*
X188212Y880149D01*
X188190Y880251D01*
X188174Y880353D01*
X188164Y880370D01*
X188160Y880390D01*
X188107Y880479D01*
X188058Y880570D01*
X188044Y880584D01*
X188034Y880601D01*
X187955Y880668D01*
X187880Y880740D01*
X187862Y880748D01*
X187847Y880761D01*
X187751Y880800D01*
X187657Y880843D01*
X187637Y880845D01*
X187619Y880853D01*
X187452Y880871D01*
X187133Y880871D01*
X182371Y885633D01*
X182371Y892367D01*
X187133Y897129D01*
X193867Y897129D01*
X198470Y892526D01*
X198544Y892473D01*
X198613Y892413D01*
X198644Y892401D01*
X198670Y892382D01*
X198757Y892355D01*
X198842Y892321D01*
X198883Y892317D01*
X198905Y892310D01*
X198937Y892311D01*
X199008Y892303D01*
X253245Y892303D01*
X253336Y892317D01*
X253426Y892325D01*
X253456Y892337D01*
X253488Y892342D01*
X253569Y892385D01*
X253653Y892421D01*
X253685Y892447D01*
X253706Y892458D01*
X253728Y892481D01*
X253784Y892526D01*
X264190Y902932D01*
X264243Y903006D01*
X264303Y903076D01*
X264315Y903106D01*
X264334Y903132D01*
X264361Y903219D01*
X264395Y903304D01*
X264399Y903345D01*
X264406Y903367D01*
X264405Y903399D01*
X264413Y903471D01*
X264413Y930910D01*
X264410Y930930D01*
X264412Y930949D01*
X264390Y931051D01*
X264374Y931153D01*
X264364Y931170D01*
X264360Y931190D01*
X264307Y931279D01*
X264258Y931370D01*
X264244Y931384D01*
X264234Y931401D01*
X264155Y931468D01*
X264080Y931540D01*
X264062Y931548D01*
X264047Y931561D01*
X263951Y931600D01*
X263857Y931643D01*
X263837Y931645D01*
X263819Y931653D01*
X263652Y931671D01*
X258479Y931671D01*
X255491Y932909D01*
X253205Y935195D01*
X251967Y938183D01*
X251967Y941417D01*
X253205Y944405D01*
X255491Y946691D01*
X258479Y947929D01*
X274921Y947929D01*
X277909Y946691D01*
X280195Y944405D01*
X281433Y941417D01*
X281433Y938183D01*
X280195Y935195D01*
X277909Y932909D01*
X274921Y931671D01*
X269748Y931671D01*
X269728Y931668D01*
X269709Y931670D01*
X269607Y931648D01*
X269505Y931632D01*
X269488Y931622D01*
X269468Y931618D01*
X269379Y931565D01*
X269288Y931516D01*
X269274Y931502D01*
X269257Y931492D01*
X269190Y931413D01*
X269118Y931338D01*
X269110Y931320D01*
X269097Y931305D01*
X269058Y931209D01*
X269015Y931115D01*
X269013Y931095D01*
X269005Y931077D01*
X268987Y930910D01*
X268987Y905256D01*
X268990Y905236D01*
X268988Y905217D01*
X269010Y905115D01*
X269026Y905013D01*
X269036Y904996D01*
X269040Y904976D01*
X269093Y904887D01*
X269142Y904796D01*
X269156Y904782D01*
X269166Y904765D01*
X269245Y904698D01*
X269320Y904626D01*
X269338Y904618D01*
X269353Y904605D01*
X269449Y904566D01*
X269543Y904523D01*
X269563Y904521D01*
X269581Y904513D01*
X269748Y904495D01*
X301752Y904495D01*
X301772Y904498D01*
X301791Y904496D01*
X301893Y904518D01*
X301995Y904534D01*
X302012Y904544D01*
X302032Y904548D01*
X302121Y904601D01*
X302212Y904650D01*
X302226Y904664D01*
X302243Y904674D01*
X302310Y904753D01*
X302382Y904828D01*
X302390Y904846D01*
X302403Y904861D01*
X302442Y904957D01*
X302485Y905051D01*
X302487Y905071D01*
X302495Y905089D01*
X302513Y905256D01*
X302513Y930910D01*
X302510Y930930D01*
X302512Y930949D01*
X302490Y931051D01*
X302474Y931153D01*
X302464Y931170D01*
X302460Y931190D01*
X302407Y931279D01*
X302358Y931370D01*
X302344Y931384D01*
X302334Y931401D01*
X302255Y931468D01*
X302180Y931540D01*
X302162Y931548D01*
X302147Y931561D01*
X302051Y931600D01*
X301957Y931643D01*
X301937Y931645D01*
X301919Y931653D01*
X301752Y931671D01*
X296579Y931671D01*
X293591Y932909D01*
X291305Y935195D01*
X290067Y938183D01*
X290067Y941417D01*
X291305Y944405D01*
X293591Y946691D01*
X296579Y947929D01*
X313021Y947929D01*
X316009Y946691D01*
X318295Y944405D01*
X319533Y941417D01*
X319533Y938183D01*
X318295Y935195D01*
X316009Y932909D01*
X313021Y931671D01*
X307848Y931671D01*
X307828Y931668D01*
X307809Y931670D01*
X307707Y931648D01*
X307605Y931632D01*
X307588Y931622D01*
X307568Y931618D01*
X307479Y931565D01*
X307388Y931516D01*
X307374Y931502D01*
X307357Y931492D01*
X307290Y931413D01*
X307218Y931338D01*
X307210Y931320D01*
X307197Y931305D01*
X307158Y931209D01*
X307115Y931115D01*
X307113Y931095D01*
X307105Y931077D01*
X307087Y930910D01*
X307087Y897890D01*
X307090Y897870D01*
X307088Y897851D01*
X307110Y897749D01*
X307126Y897647D01*
X307136Y897630D01*
X307140Y897610D01*
X307193Y897521D01*
X307242Y897430D01*
X307256Y897416D01*
X307266Y897399D01*
X307345Y897332D01*
X307420Y897260D01*
X307438Y897252D01*
X307453Y897239D01*
X307549Y897200D01*
X307643Y897157D01*
X307663Y897155D01*
X307681Y897147D01*
X307848Y897129D01*
X308167Y897129D01*
X312929Y892367D01*
X312929Y885633D01*
X308167Y880871D01*
X301433Y880871D01*
X296671Y885633D01*
X296671Y892367D01*
X301433Y897129D01*
X301752Y897129D01*
X301772Y897132D01*
X301791Y897130D01*
X301893Y897152D01*
X301995Y897168D01*
X302012Y897178D01*
X302032Y897182D01*
X302121Y897235D01*
X302212Y897284D01*
X302226Y897298D01*
X302243Y897308D01*
X302310Y897387D01*
X302382Y897462D01*
X302390Y897480D01*
X302403Y897495D01*
X302442Y897591D01*
X302485Y897685D01*
X302487Y897705D01*
X302495Y897723D01*
X302513Y897890D01*
X302513Y899160D01*
X302510Y899180D01*
X302512Y899199D01*
X302490Y899301D01*
X302474Y899403D01*
X302464Y899420D01*
X302460Y899440D01*
X302407Y899529D01*
X302358Y899620D01*
X302344Y899634D01*
X302334Y899651D01*
X302255Y899718D01*
X302180Y899790D01*
X302162Y899798D01*
X302147Y899811D01*
X302051Y899850D01*
X301957Y899893D01*
X301937Y899895D01*
X301919Y899903D01*
X301752Y899921D01*
X267963Y899921D01*
X267872Y899907D01*
X267782Y899899D01*
X267752Y899887D01*
X267720Y899882D01*
X267639Y899839D01*
X267555Y899803D01*
X267523Y899777D01*
X267502Y899766D01*
X267480Y899743D01*
X267424Y899698D01*
X255455Y887729D01*
X199390Y887729D01*
X199370Y887726D01*
X199351Y887728D01*
X199249Y887706D01*
X199147Y887690D01*
X199130Y887680D01*
X199110Y887676D01*
X199021Y887623D01*
X198930Y887574D01*
X198916Y887560D01*
X198899Y887550D01*
X198832Y887471D01*
X198760Y887396D01*
X198752Y887378D01*
X198739Y887363D01*
X198700Y887267D01*
X198657Y887173D01*
X198655Y887153D01*
X198647Y887135D01*
X198629Y886968D01*
X198629Y885633D01*
X193867Y880871D01*
X193548Y880871D01*
X193528Y880868D01*
X193509Y880870D01*
X193407Y880848D01*
X193305Y880832D01*
X193288Y880822D01*
X193268Y880818D01*
X193179Y880765D01*
X193088Y880716D01*
X193074Y880702D01*
X193057Y880692D01*
X192990Y880613D01*
X192918Y880538D01*
X192910Y880520D01*
X192897Y880505D01*
X192858Y880409D01*
X192815Y880315D01*
X192813Y880295D01*
X192805Y880277D01*
X192787Y880110D01*
X192787Y859790D01*
X192790Y859770D01*
X192788Y859751D01*
X192810Y859649D01*
X192826Y859547D01*
X192836Y859530D01*
X192840Y859510D01*
X192893Y859421D01*
X192942Y859330D01*
X192956Y859316D01*
X192966Y859299D01*
X193045Y859232D01*
X193120Y859160D01*
X193138Y859152D01*
X193153Y859139D01*
X193249Y859100D01*
X193343Y859057D01*
X193363Y859055D01*
X193381Y859047D01*
X193548Y859029D01*
X198721Y859029D01*
X201709Y857791D01*
X203995Y855505D01*
X205233Y852517D01*
X205233Y849283D01*
X203995Y846295D01*
X201709Y844009D01*
X198721Y842771D01*
X182279Y842771D01*
G37*
%LPD*%
%LPC*%
G36*
X161733Y880871D02*
X161733Y880871D01*
X156971Y885633D01*
X156971Y892367D01*
X161733Y897129D01*
X163068Y897129D01*
X163088Y897132D01*
X163107Y897130D01*
X163209Y897152D01*
X163311Y897168D01*
X163328Y897178D01*
X163348Y897182D01*
X163437Y897235D01*
X163528Y897284D01*
X163542Y897298D01*
X163559Y897308D01*
X163626Y897387D01*
X163698Y897462D01*
X163706Y897480D01*
X163719Y897495D01*
X163758Y897591D01*
X163801Y897685D01*
X163803Y897705D01*
X163811Y897723D01*
X163829Y897890D01*
X163829Y930910D01*
X163826Y930930D01*
X163828Y930949D01*
X163806Y931051D01*
X163790Y931153D01*
X163780Y931170D01*
X163776Y931190D01*
X163723Y931279D01*
X163674Y931370D01*
X163660Y931384D01*
X163650Y931401D01*
X163571Y931468D01*
X163496Y931540D01*
X163478Y931548D01*
X163463Y931561D01*
X163367Y931600D01*
X163273Y931643D01*
X163253Y931645D01*
X163235Y931653D01*
X163068Y931671D01*
X160521Y931671D01*
X160430Y931657D01*
X160340Y931649D01*
X160310Y931637D01*
X160278Y931632D01*
X160197Y931589D01*
X160113Y931553D01*
X160081Y931527D01*
X160060Y931516D01*
X160038Y931493D01*
X159982Y931448D01*
X140647Y912113D01*
X100422Y912113D01*
X100307Y912094D01*
X100191Y912077D01*
X100185Y912075D01*
X100179Y912074D01*
X100076Y912019D01*
X99971Y911966D01*
X99967Y911961D01*
X99961Y911958D01*
X99882Y911874D01*
X99799Y911790D01*
X99796Y911784D01*
X99792Y911780D01*
X99784Y911763D01*
X99718Y911643D01*
X98267Y908141D01*
X95159Y905033D01*
X91098Y903350D01*
X86702Y903350D01*
X82641Y905033D01*
X79533Y908141D01*
X77850Y912202D01*
X77850Y916598D01*
X79533Y920659D01*
X82641Y923767D01*
X86702Y925450D01*
X91098Y925450D01*
X95159Y923767D01*
X98267Y920659D01*
X99718Y917157D01*
X99780Y917057D01*
X99840Y916957D01*
X99845Y916953D01*
X99848Y916948D01*
X99938Y916873D01*
X100027Y916797D01*
X100033Y916795D01*
X100037Y916791D01*
X100146Y916749D01*
X100255Y916705D01*
X100262Y916704D01*
X100267Y916703D01*
X100285Y916702D01*
X100422Y916687D01*
X138437Y916687D01*
X138528Y916701D01*
X138618Y916709D01*
X138648Y916721D01*
X138680Y916726D01*
X138761Y916769D01*
X138845Y916805D01*
X138877Y916831D01*
X138898Y916842D01*
X138920Y916865D01*
X138976Y916910D01*
X153895Y931829D01*
X153907Y931845D01*
X153922Y931857D01*
X153978Y931945D01*
X154038Y932029D01*
X154044Y932047D01*
X154055Y932064D01*
X154080Y932165D01*
X154111Y932264D01*
X154110Y932284D01*
X154115Y932303D01*
X154107Y932406D01*
X154104Y932509D01*
X154098Y932528D01*
X154096Y932548D01*
X154056Y932643D01*
X154020Y932741D01*
X154007Y932756D01*
X154000Y932774D01*
X153895Y932905D01*
X151605Y935195D01*
X150367Y938183D01*
X150367Y941417D01*
X151605Y944405D01*
X153891Y946691D01*
X156879Y947929D01*
X173321Y947929D01*
X176309Y946691D01*
X178595Y944405D01*
X179833Y941417D01*
X179833Y938183D01*
X178595Y935195D01*
X176309Y932909D01*
X173321Y931671D01*
X169164Y931671D01*
X169144Y931668D01*
X169125Y931670D01*
X169023Y931648D01*
X168921Y931632D01*
X168904Y931622D01*
X168884Y931618D01*
X168795Y931565D01*
X168704Y931516D01*
X168690Y931502D01*
X168673Y931492D01*
X168606Y931413D01*
X168534Y931338D01*
X168526Y931320D01*
X168513Y931305D01*
X168474Y931209D01*
X168431Y931115D01*
X168429Y931095D01*
X168421Y931077D01*
X168403Y930910D01*
X168403Y897508D01*
X168417Y897418D01*
X168425Y897327D01*
X168437Y897298D01*
X168442Y897266D01*
X168485Y897185D01*
X168521Y897101D01*
X168547Y897069D01*
X168558Y897048D01*
X168581Y897026D01*
X168626Y896970D01*
X173229Y892367D01*
X173229Y885633D01*
X168467Y880871D01*
X161733Y880871D01*
G37*
%LPD*%
%LPC*%
G36*
X398179Y830071D02*
X398179Y830071D01*
X395191Y831309D01*
X392905Y833595D01*
X391667Y836583D01*
X391667Y839817D01*
X392905Y842805D01*
X395191Y845091D01*
X398179Y846329D01*
X403352Y846329D01*
X403372Y846332D01*
X403391Y846330D01*
X403493Y846352D01*
X403595Y846368D01*
X403612Y846378D01*
X403632Y846382D01*
X403721Y846435D01*
X403812Y846484D01*
X403826Y846498D01*
X403843Y846508D01*
X403910Y846587D01*
X403982Y846662D01*
X403990Y846680D01*
X404003Y846695D01*
X404042Y846791D01*
X404085Y846885D01*
X404087Y846905D01*
X404095Y846923D01*
X404113Y847090D01*
X404113Y875037D01*
X404099Y875128D01*
X404091Y875218D01*
X404079Y875248D01*
X404074Y875280D01*
X404031Y875361D01*
X403995Y875445D01*
X403969Y875477D01*
X403958Y875498D01*
X403935Y875520D01*
X403890Y875576D01*
X392976Y886490D01*
X392902Y886543D01*
X392832Y886603D01*
X392802Y886615D01*
X392776Y886634D01*
X392689Y886661D01*
X392604Y886695D01*
X392563Y886699D01*
X392541Y886706D01*
X392509Y886705D01*
X392437Y886713D01*
X389890Y886713D01*
X389870Y886710D01*
X389851Y886712D01*
X389749Y886690D01*
X389647Y886674D01*
X389630Y886664D01*
X389610Y886660D01*
X389521Y886607D01*
X389430Y886558D01*
X389416Y886544D01*
X389399Y886534D01*
X389332Y886455D01*
X389260Y886380D01*
X389252Y886362D01*
X389239Y886347D01*
X389200Y886251D01*
X389157Y886157D01*
X389155Y886137D01*
X389147Y886119D01*
X389129Y885952D01*
X389129Y885633D01*
X384367Y880871D01*
X377633Y880871D01*
X372871Y885633D01*
X372871Y892367D01*
X377633Y897129D01*
X384367Y897129D01*
X389129Y892367D01*
X389129Y892048D01*
X389132Y892028D01*
X389130Y892009D01*
X389152Y891907D01*
X389168Y891805D01*
X389178Y891788D01*
X389182Y891768D01*
X389235Y891679D01*
X389284Y891588D01*
X389298Y891574D01*
X389308Y891557D01*
X389387Y891490D01*
X389462Y891418D01*
X389480Y891410D01*
X389495Y891397D01*
X389591Y891358D01*
X389685Y891315D01*
X389705Y891313D01*
X389723Y891305D01*
X389890Y891287D01*
X394647Y891287D01*
X408687Y877247D01*
X408687Y847090D01*
X408690Y847070D01*
X408688Y847051D01*
X408710Y846949D01*
X408726Y846847D01*
X408736Y846830D01*
X408740Y846810D01*
X408793Y846721D01*
X408842Y846630D01*
X408856Y846616D01*
X408866Y846599D01*
X408945Y846532D01*
X409020Y846460D01*
X409038Y846452D01*
X409053Y846439D01*
X409149Y846400D01*
X409243Y846357D01*
X409263Y846355D01*
X409281Y846347D01*
X409448Y846329D01*
X414621Y846329D01*
X417609Y845091D01*
X419895Y842805D01*
X421133Y839817D01*
X421133Y836583D01*
X419895Y833595D01*
X417609Y831309D01*
X414621Y830071D01*
X398179Y830071D01*
G37*
%LPD*%
%LPC*%
G36*
X283879Y842771D02*
X283879Y842771D01*
X280891Y844009D01*
X278605Y846295D01*
X277367Y849283D01*
X277367Y852517D01*
X278605Y855505D01*
X280891Y857791D01*
X283879Y859029D01*
X300321Y859029D01*
X303309Y857791D01*
X305595Y855505D01*
X305940Y854673D01*
X306001Y854573D01*
X306061Y854473D01*
X306066Y854469D01*
X306069Y854464D01*
X306159Y854389D01*
X306248Y854313D01*
X306254Y854311D01*
X306259Y854307D01*
X306368Y854265D01*
X306476Y854221D01*
X306484Y854220D01*
X306488Y854219D01*
X306507Y854218D01*
X306643Y854203D01*
X308992Y854203D01*
X309082Y854217D01*
X309173Y854225D01*
X309202Y854237D01*
X309234Y854242D01*
X309315Y854285D01*
X309399Y854321D01*
X309431Y854347D01*
X309452Y854358D01*
X309474Y854381D01*
X309530Y854426D01*
X314133Y859029D01*
X320867Y859029D01*
X325629Y854267D01*
X325629Y847533D01*
X320867Y842771D01*
X314133Y842771D01*
X309371Y847533D01*
X309371Y848868D01*
X309368Y848888D01*
X309370Y848907D01*
X309348Y849009D01*
X309332Y849111D01*
X309322Y849128D01*
X309318Y849148D01*
X309265Y849237D01*
X309216Y849328D01*
X309202Y849342D01*
X309192Y849359D01*
X309113Y849426D01*
X309038Y849498D01*
X309020Y849506D01*
X309005Y849519D01*
X308909Y849558D01*
X308815Y849601D01*
X308795Y849603D01*
X308777Y849611D01*
X308610Y849629D01*
X307485Y849629D01*
X307370Y849610D01*
X307254Y849593D01*
X307248Y849591D01*
X307242Y849590D01*
X307139Y849535D01*
X307035Y849482D01*
X307030Y849477D01*
X307025Y849474D01*
X306945Y849390D01*
X306862Y849306D01*
X306859Y849300D01*
X306855Y849296D01*
X306847Y849279D01*
X306781Y849159D01*
X305595Y846295D01*
X303309Y844009D01*
X300321Y842771D01*
X283879Y842771D01*
G37*
%LPD*%
%LPC*%
G36*
X445924Y890424D02*
X445924Y890424D01*
X445924Y904713D01*
X447505Y904505D01*
X449515Y903966D01*
X451438Y903170D01*
X453240Y902130D01*
X454891Y900863D01*
X456363Y899391D01*
X457630Y897740D01*
X458670Y895938D01*
X459466Y894015D01*
X460005Y892005D01*
X460213Y890424D01*
X445924Y890424D01*
G37*
%LPD*%
%LPC*%
G36*
X115922Y890424D02*
X115922Y890424D01*
X115922Y904713D01*
X117503Y904505D01*
X119513Y903966D01*
X121436Y903170D01*
X123238Y902130D01*
X124889Y900863D01*
X126361Y899391D01*
X127628Y897740D01*
X128668Y895938D01*
X129464Y894015D01*
X130003Y892005D01*
X130211Y890424D01*
X115922Y890424D01*
G37*
%LPD*%
%LPC*%
G36*
X496922Y890424D02*
X496922Y890424D01*
X496922Y904713D01*
X498503Y904505D01*
X500513Y903966D01*
X502436Y903170D01*
X504238Y902130D01*
X505889Y900863D01*
X507361Y899391D01*
X508628Y897740D01*
X509668Y895938D01*
X510464Y894015D01*
X511003Y892005D01*
X511211Y890424D01*
X496922Y890424D01*
G37*
%LPD*%
%LPC*%
G36*
X64924Y890424D02*
X64924Y890424D01*
X64924Y904713D01*
X66505Y904505D01*
X68515Y903966D01*
X70438Y903170D01*
X72240Y902130D01*
X73891Y900863D01*
X75363Y899391D01*
X76630Y897740D01*
X77670Y895938D01*
X78466Y894015D01*
X79005Y892005D01*
X79213Y890424D01*
X64924Y890424D01*
G37*
%LPD*%
%LPC*%
G36*
X496922Y941422D02*
X496922Y941422D01*
X496922Y955711D01*
X498503Y955503D01*
X500513Y954964D01*
X502436Y954168D01*
X504238Y953128D01*
X505889Y951861D01*
X507361Y950389D01*
X508628Y948738D01*
X509668Y946936D01*
X510464Y945013D01*
X511003Y943003D01*
X511211Y941422D01*
X496922Y941422D01*
G37*
%LPD*%
%LPC*%
G36*
X64924Y941422D02*
X64924Y941422D01*
X64924Y955711D01*
X66505Y955503D01*
X68515Y954964D01*
X70438Y954168D01*
X72240Y953128D01*
X73891Y951861D01*
X75363Y950389D01*
X76630Y948738D01*
X77670Y946936D01*
X78466Y945013D01*
X79005Y943003D01*
X79213Y941422D01*
X64924Y941422D01*
G37*
%LPD*%
%LPC*%
G36*
X445924Y941422D02*
X445924Y941422D01*
X445924Y955711D01*
X447505Y955503D01*
X449515Y954964D01*
X451438Y954168D01*
X453240Y953128D01*
X454891Y951861D01*
X456363Y950389D01*
X457630Y948738D01*
X458670Y946936D01*
X459466Y945013D01*
X460005Y943003D01*
X460213Y941422D01*
X445924Y941422D01*
G37*
%LPD*%
%LPC*%
G36*
X115922Y941422D02*
X115922Y941422D01*
X115922Y955711D01*
X117503Y955503D01*
X119513Y954964D01*
X121436Y954168D01*
X123238Y953128D01*
X124889Y951861D01*
X126361Y950389D01*
X127628Y948738D01*
X128668Y946936D01*
X129464Y945013D01*
X130003Y943003D01*
X130211Y941422D01*
X115922Y941422D01*
G37*
%LPD*%
%LPC*%
G36*
X115922Y887378D02*
X115922Y887378D01*
X130211Y887378D01*
X130003Y885797D01*
X129464Y883787D01*
X128668Y881864D01*
X127628Y880062D01*
X126361Y878411D01*
X124889Y876939D01*
X123238Y875672D01*
X121436Y874632D01*
X119513Y873836D01*
X117503Y873297D01*
X115922Y873089D01*
X115922Y887378D01*
G37*
%LPD*%
%LPC*%
G36*
X445924Y887378D02*
X445924Y887378D01*
X460213Y887378D01*
X460005Y885797D01*
X459466Y883787D01*
X458670Y881864D01*
X457630Y880062D01*
X456363Y878411D01*
X454891Y876939D01*
X453240Y875672D01*
X451438Y874632D01*
X449515Y873836D01*
X447505Y873297D01*
X445924Y873089D01*
X445924Y887378D01*
G37*
%LPD*%
%LPC*%
G36*
X496922Y887378D02*
X496922Y887378D01*
X511211Y887378D01*
X511003Y885797D01*
X510464Y883787D01*
X509668Y881864D01*
X508628Y880062D01*
X507361Y878411D01*
X505889Y876939D01*
X504238Y875672D01*
X502436Y874632D01*
X500513Y873836D01*
X498503Y873297D01*
X496922Y873089D01*
X496922Y887378D01*
G37*
%LPD*%
%LPC*%
G36*
X479587Y890424D02*
X479587Y890424D01*
X479795Y892005D01*
X480334Y894015D01*
X481130Y895938D01*
X482170Y897740D01*
X483437Y899391D01*
X484909Y900863D01*
X486560Y902130D01*
X488362Y903170D01*
X490285Y903966D01*
X492295Y904505D01*
X493876Y904713D01*
X493876Y890424D01*
X479587Y890424D01*
G37*
%LPD*%
%LPC*%
G36*
X98587Y890424D02*
X98587Y890424D01*
X98795Y892005D01*
X99334Y894015D01*
X100130Y895938D01*
X101170Y897740D01*
X102437Y899391D01*
X103909Y900863D01*
X105560Y902130D01*
X107362Y903170D01*
X109285Y903966D01*
X111295Y904505D01*
X112876Y904713D01*
X112876Y890424D01*
X98587Y890424D01*
G37*
%LPD*%
%LPC*%
G36*
X64924Y887378D02*
X64924Y887378D01*
X79213Y887378D01*
X79005Y885797D01*
X78466Y883787D01*
X77670Y881864D01*
X76630Y880062D01*
X75363Y878411D01*
X73891Y876939D01*
X72240Y875672D01*
X70438Y874632D01*
X68515Y873836D01*
X66505Y873297D01*
X64924Y873089D01*
X64924Y887378D01*
G37*
%LPD*%
%LPC*%
G36*
X428589Y890424D02*
X428589Y890424D01*
X428797Y892005D01*
X429336Y894015D01*
X430132Y895938D01*
X431172Y897740D01*
X432439Y899391D01*
X433911Y900863D01*
X435562Y902130D01*
X437364Y903170D01*
X439287Y903966D01*
X441297Y904505D01*
X442878Y904713D01*
X442878Y890424D01*
X428589Y890424D01*
G37*
%LPD*%
%LPC*%
G36*
X98587Y941422D02*
X98587Y941422D01*
X98795Y943003D01*
X99334Y945013D01*
X100130Y946936D01*
X101170Y948738D01*
X102437Y950389D01*
X103909Y951861D01*
X105560Y953128D01*
X107362Y954168D01*
X109285Y954964D01*
X111295Y955503D01*
X112876Y955711D01*
X112876Y941422D01*
X98587Y941422D01*
G37*
%LPD*%
%LPC*%
G36*
X115922Y938376D02*
X115922Y938376D01*
X130211Y938376D01*
X130003Y936795D01*
X129464Y934785D01*
X128668Y932862D01*
X127628Y931060D01*
X126361Y929409D01*
X124889Y927937D01*
X123238Y926670D01*
X121436Y925630D01*
X119513Y924834D01*
X117503Y924295D01*
X115922Y924087D01*
X115922Y938376D01*
G37*
%LPD*%
%LPC*%
G36*
X64924Y938376D02*
X64924Y938376D01*
X79213Y938376D01*
X79005Y936795D01*
X78466Y934785D01*
X77670Y932862D01*
X76630Y931060D01*
X75363Y929409D01*
X73891Y927937D01*
X72240Y926670D01*
X70438Y925630D01*
X68515Y924834D01*
X66505Y924295D01*
X64924Y924087D01*
X64924Y938376D01*
G37*
%LPD*%
%LPC*%
G36*
X496922Y938376D02*
X496922Y938376D01*
X511211Y938376D01*
X511003Y936795D01*
X510464Y934785D01*
X509668Y932862D01*
X508628Y931060D01*
X507361Y929409D01*
X505889Y927937D01*
X504238Y926670D01*
X502436Y925630D01*
X500513Y924834D01*
X498503Y924295D01*
X496922Y924087D01*
X496922Y938376D01*
G37*
%LPD*%
%LPC*%
G36*
X445924Y938376D02*
X445924Y938376D01*
X460213Y938376D01*
X460005Y936795D01*
X459466Y934785D01*
X458670Y932862D01*
X457630Y931060D01*
X456363Y929409D01*
X454891Y927937D01*
X453240Y926670D01*
X451438Y925630D01*
X449515Y924834D01*
X447505Y924295D01*
X445924Y924087D01*
X445924Y938376D01*
G37*
%LPD*%
%LPC*%
G36*
X428589Y941422D02*
X428589Y941422D01*
X428797Y943003D01*
X429336Y945013D01*
X430132Y946936D01*
X431172Y948738D01*
X432439Y950389D01*
X433911Y951861D01*
X435562Y953128D01*
X437364Y954168D01*
X439287Y954964D01*
X441297Y955503D01*
X442878Y955711D01*
X442878Y941422D01*
X428589Y941422D01*
G37*
%LPD*%
%LPC*%
G36*
X479587Y941422D02*
X479587Y941422D01*
X479795Y943003D01*
X480334Y945013D01*
X481130Y946936D01*
X482170Y948738D01*
X483437Y950389D01*
X484909Y951861D01*
X486560Y953128D01*
X488362Y954168D01*
X490285Y954964D01*
X492295Y955503D01*
X493876Y955711D01*
X493876Y941422D01*
X479587Y941422D01*
G37*
%LPD*%
%LPC*%
G36*
X492295Y924295D02*
X492295Y924295D01*
X490285Y924834D01*
X488362Y925630D01*
X486560Y926670D01*
X484909Y927937D01*
X483437Y929409D01*
X482170Y931060D01*
X481130Y932862D01*
X480334Y934785D01*
X479795Y936795D01*
X479587Y938376D01*
X493876Y938376D01*
X493876Y924087D01*
X492295Y924295D01*
G37*
%LPD*%
%LPC*%
G36*
X111295Y924295D02*
X111295Y924295D01*
X109285Y924834D01*
X107362Y925630D01*
X105560Y926670D01*
X103909Y927937D01*
X102437Y929409D01*
X101170Y931060D01*
X100130Y932862D01*
X99334Y934785D01*
X98795Y936795D01*
X98587Y938376D01*
X112876Y938376D01*
X112876Y924087D01*
X111295Y924295D01*
G37*
%LPD*%
%LPC*%
G36*
X441297Y924295D02*
X441297Y924295D01*
X439287Y924834D01*
X437364Y925630D01*
X435562Y926670D01*
X433911Y927937D01*
X432439Y929409D01*
X431172Y931060D01*
X430132Y932862D01*
X429336Y934785D01*
X428797Y936795D01*
X428589Y938376D01*
X442878Y938376D01*
X442878Y924087D01*
X441297Y924295D01*
G37*
%LPD*%
%LPC*%
G36*
X492295Y873297D02*
X492295Y873297D01*
X490285Y873836D01*
X488362Y874632D01*
X486560Y875672D01*
X484909Y876939D01*
X483437Y878411D01*
X482170Y880062D01*
X481130Y881864D01*
X480334Y883787D01*
X479795Y885797D01*
X479587Y887378D01*
X493876Y887378D01*
X493876Y873089D01*
X492295Y873297D01*
G37*
%LPD*%
%LPC*%
G36*
X111295Y873297D02*
X111295Y873297D01*
X109285Y873836D01*
X107362Y874632D01*
X105560Y875672D01*
X103909Y876939D01*
X102437Y878411D01*
X101170Y880062D01*
X100130Y881864D01*
X99334Y883787D01*
X98795Y885797D01*
X98587Y887378D01*
X112876Y887378D01*
X112876Y873089D01*
X111295Y873297D01*
G37*
%LPD*%
%LPC*%
G36*
X441297Y873297D02*
X441297Y873297D01*
X439287Y873836D01*
X437364Y874632D01*
X435562Y875672D01*
X433911Y876939D01*
X432439Y878411D01*
X431172Y880062D01*
X430132Y881864D01*
X429336Y883787D01*
X428797Y885797D01*
X428589Y887378D01*
X442878Y887378D01*
X442878Y873089D01*
X441297Y873297D01*
G37*
%LPD*%
%LPC*%
G36*
X382523Y865123D02*
X382523Y865123D01*
X382523Y872745D01*
X384788Y872745D01*
X390145Y867388D01*
X390145Y865123D01*
X382523Y865123D01*
G37*
%LPD*%
%LPC*%
G36*
X344423Y852423D02*
X344423Y852423D01*
X344423Y860045D01*
X346688Y860045D01*
X352045Y854688D01*
X352045Y852423D01*
X344423Y852423D01*
G37*
%LPD*%
%LPC*%
G36*
X333755Y852423D02*
X333755Y852423D01*
X333755Y854688D01*
X339112Y860045D01*
X341377Y860045D01*
X341377Y852423D01*
X333755Y852423D01*
G37*
%LPD*%
%LPC*%
G36*
X382523Y854455D02*
X382523Y854455D01*
X382523Y862077D01*
X390145Y862077D01*
X390145Y859812D01*
X384788Y854455D01*
X382523Y854455D01*
G37*
%LPD*%
%LPC*%
G36*
X371855Y865123D02*
X371855Y865123D01*
X371855Y867388D01*
X377212Y872745D01*
X379477Y872745D01*
X379477Y865123D01*
X371855Y865123D01*
G37*
%LPD*%
%LPC*%
G36*
X344423Y841755D02*
X344423Y841755D01*
X344423Y849377D01*
X352045Y849377D01*
X352045Y847112D01*
X346688Y841755D01*
X344423Y841755D01*
G37*
%LPD*%
%LPC*%
G36*
X377212Y854455D02*
X377212Y854455D01*
X371855Y859812D01*
X371855Y862077D01*
X379477Y862077D01*
X379477Y854455D01*
X377212Y854455D01*
G37*
%LPD*%
%LPC*%
G36*
X339112Y841755D02*
X339112Y841755D01*
X333755Y847112D01*
X333755Y849377D01*
X341377Y849377D01*
X341377Y841755D01*
X339112Y841755D01*
G37*
%LPD*%
%LPC*%
G36*
X495398Y939898D02*
X495398Y939898D01*
X495398Y939900D01*
X495400Y939900D01*
X495400Y939898D01*
X495398Y939898D01*
G37*
%LPD*%
%LPC*%
G36*
X380999Y863599D02*
X380999Y863599D01*
X380999Y863601D01*
X381001Y863601D01*
X381001Y863599D01*
X380999Y863599D01*
G37*
%LPD*%
%LPC*%
G36*
X444400Y939898D02*
X444400Y939898D01*
X444400Y939900D01*
X444402Y939900D01*
X444402Y939898D01*
X444400Y939898D01*
G37*
%LPD*%
%LPC*%
G36*
X114398Y939898D02*
X114398Y939898D01*
X114398Y939900D01*
X114400Y939900D01*
X114400Y939898D01*
X114398Y939898D01*
G37*
%LPD*%
%LPC*%
G36*
X495398Y888900D02*
X495398Y888900D01*
X495398Y888902D01*
X495400Y888902D01*
X495400Y888900D01*
X495398Y888900D01*
G37*
%LPD*%
%LPC*%
G36*
X444400Y888900D02*
X444400Y888900D01*
X444400Y888902D01*
X444402Y888902D01*
X444402Y888900D01*
X444400Y888900D01*
G37*
%LPD*%
%LPC*%
G36*
X342899Y850899D02*
X342899Y850899D01*
X342899Y850901D01*
X342901Y850901D01*
X342901Y850899D01*
X342899Y850899D01*
G37*
%LPD*%
%LPC*%
G36*
X114398Y888900D02*
X114398Y888900D01*
X114398Y888902D01*
X114400Y888902D01*
X114400Y888900D01*
X114398Y888900D01*
G37*
%LPD*%
D10*
X469900Y914400D03*
D11*
X444401Y888901D03*
X495399Y888901D03*
X495399Y939899D03*
X444401Y939899D03*
D10*
X88900Y914400D03*
D11*
X114399Y939899D03*
X63401Y939899D03*
X63401Y888901D03*
X114399Y888901D03*
D12*
X158496Y939800D02*
X171704Y939800D01*
X260096Y939800D02*
X273304Y939800D01*
X298196Y939800D02*
X311404Y939800D01*
X399796Y939800D02*
X413004Y939800D01*
X298704Y850900D02*
X285496Y850900D01*
X197104Y850900D02*
X183896Y850900D01*
X399796Y838200D02*
X413004Y838200D01*
X501396Y838200D02*
X514604Y838200D01*
D13*
X165100Y889000D03*
X190500Y889000D03*
X304800Y889000D03*
X330200Y889000D03*
X317500Y850900D03*
X342900Y850900D03*
D14*
X381000Y889000D03*
X381000Y863600D03*
D15*
X166116Y889000D02*
X166116Y938784D01*
X166116Y889000D02*
X165100Y889000D01*
X166116Y938784D02*
X165100Y939800D01*
X139700Y914400D02*
X88900Y914400D01*
X139700Y914400D02*
X165100Y939800D01*
X304800Y939800D02*
X304800Y889000D01*
X304800Y902208D02*
X266700Y902208D01*
X266700Y939800D01*
X304800Y939800D02*
X304800Y902208D01*
X190500Y889000D02*
X190500Y850900D01*
X190500Y890016D02*
X254508Y890016D01*
X266700Y902208D01*
X190500Y890016D02*
X190500Y889000D01*
X355600Y889000D02*
X406400Y939800D01*
X355600Y889000D02*
X330200Y889000D01*
X431800Y914400D02*
X469900Y914400D01*
X431800Y914400D02*
X419100Y927100D01*
X406400Y939800D01*
X444500Y838200D02*
X508000Y838200D01*
X444500Y838200D02*
X419100Y863600D01*
X419100Y927100D01*
X316992Y851916D02*
X292608Y851916D01*
X292100Y850900D01*
X316992Y851916D02*
X317500Y850900D01*
X393700Y889000D02*
X406400Y876300D01*
X393700Y889000D02*
X381000Y889000D01*
X406400Y876300D02*
X406400Y838200D01*
X64008Y890016D02*
X64008Y938784D01*
X63401Y939899D01*
X64008Y890016D02*
X114300Y890016D01*
X64008Y890016D02*
X63401Y888901D01*
X114300Y890016D02*
X114390Y889008D01*
X114399Y888901D01*
X114399Y939899D02*
X65123Y939899D01*
X64008Y938784D01*
X114390Y864108D02*
X114390Y863600D01*
X114390Y864108D02*
X114390Y889008D01*
X114390Y864108D02*
X156972Y864108D01*
X114390Y864108D02*
X114300Y864108D01*
X495300Y890016D02*
X495390Y889008D01*
X495399Y888901D01*
X381000Y812800D02*
X368300Y825500D01*
X444401Y939899D02*
X495399Y939899D01*
X444508Y889008D02*
X444401Y888901D01*
X444508Y889008D02*
X495390Y889008D01*
X495390Y939890D02*
X495399Y939899D01*
X495390Y939890D02*
X495390Y889008D01*
X533400Y812800D02*
X381000Y812800D01*
X495399Y888901D02*
X533400Y850900D01*
X533400Y812800D01*
X342900Y825500D02*
X342900Y850900D01*
X195580Y825500D02*
X156972Y864108D01*
X195580Y825500D02*
X342900Y825500D01*
X342900Y850900D02*
X368300Y850900D01*
X381000Y863600D01*
X368300Y825500D02*
X342900Y825500D01*
M02*
